<svg version="1.1" id="Layer_1" xmlns="http://www.w3.org/2000/svg" xmlns:xlink="http://www.w3.org/1999/xlink" x="0px" y="0px"
	 width="100%" viewBox="0 0 750 750" enable-background="new 0 0 750 750" xml:space="preserve">
<path fill="#000000" opacity="1.000000" stroke="none" 
	d="
M416.000000,751.000000 
	C277.333344,751.000000 139.166672,751.000000 1.000000,751.000000 
	C1.000000,501.000000 1.000000,251.000000 1.000000,1.000000 
	C251.000000,1.000000 501.000000,1.000000 751.000000,1.000000 
	C751.000000,251.000000 751.000000,501.000000 751.000000,751.000000 
	C639.500000,751.000000 528.000000,751.000000 416.000000,751.000000 
M726.830933,257.556152 
	C726.563232,257.353668 726.295593,257.151184 725.897095,256.215210 
	C723.211060,249.897919 720.975952,243.336319 717.720337,237.327606 
	C713.990173,230.442749 709.907288,222.614960 701.418457,221.441010 
	C692.774719,220.245605 683.803284,221.052124 674.999878,221.483658 
	C666.322021,221.909042 657.674866,222.962860 648.976868,222.984161 
	C646.115723,214.682846 643.421143,206.319412 640.354187,198.094818 
	C635.774536,185.813339 630.846069,173.662216 626.227051,161.395004 
	C621.810486,149.665436 617.784851,137.786255 613.237183,126.109238 
	C609.894592,117.526428 605.937134,109.184784 602.343018,100.697815 
	C597.670166,89.663658 593.600220,78.339149 588.322632,67.605789 
	C582.763733,56.300453 576.513794,45.270523 569.702515,34.675217 
	C566.724487,30.042820 562.032837,26.127459 557.348145,23.067099 
	C550.347290,18.493692 542.170166,19.169317 534.558594,21.362518 
	C527.562805,23.378302 520.262878,25.325153 514.264648,31.063181 
	C507.856781,35.911465 501.067719,40.339211 495.137604,45.714569 
	C487.742859,52.417583 481.066742,59.912029 474.061096,67.045876 
	C463.753662,77.541847 453.494843,88.086708 443.097198,98.492706 
	C425.886047,115.717705 408.757660,133.031647 391.251556,149.953430 
	C380.035278,160.795334 368.427460,171.261322 356.590973,181.425125 
	C341.586365,194.309387 326.654968,207.365112 310.810242,219.162766 
	C291.498169,233.542130 271.524170,247.081848 251.337311,260.217651 
	C240.066223,267.551880 227.809311,273.379395 215.944778,279.789856 
	C209.914352,283.048187 203.769135,286.094025 196.967590,289.148529 
	C182.262756,293.077820 167.594360,297.150513 152.843277,300.897705 
	C136.796936,304.973938 120.606773,308.493927 104.601357,312.718781 
	C85.278908,317.819214 66.225151,323.999451 46.790844,328.594757 
	C31.052776,332.316040 19.584507,348.323975 19.807552,364.150513 
	C20.032173,380.088745 21.783417,395.730194 24.663740,411.348083 
	C27.481457,426.626587 32.411396,441.194550 38.708698,455.323700 
	C42.704208,464.288330 47.020081,473.110199 51.271683,482.662415 
	C60.330986,494.727173 69.258850,506.894135 78.519493,518.802307 
	C81.843788,523.077026 86.266869,526.520813 92.152344,525.922913 
	C99.449821,525.181580 106.689766,523.873962 113.983948,523.620117 
	C117.642845,534.556274 121.077812,545.573853 125.017113,556.408081 
	C129.980789,570.059692 134.696060,583.862305 140.707886,597.057922 
	C149.889420,617.210815 159.721405,637.092163 169.986572,656.717773 
	C176.789993,669.725037 184.610199,682.224426 192.442947,694.656433 
	C195.178177,698.997681 198.773056,703.215637 202.917664,706.166138 
	C212.455170,712.955750 222.405228,710.483704 232.776642,705.720703 
	C235.503464,704.255859 238.304581,702.912842 240.943405,701.303650 
	C249.340363,696.183228 257.646057,690.913147 266.045471,685.796936 
	C274.155365,680.857117 282.657471,676.485107 290.367828,670.993896 
	C294.938171,667.739014 299.160645,663.310059 302.034943,658.508362 
	C307.287170,649.734253 305.655884,640.540100 299.839355,632.607849 
	C291.499695,621.234741 282.015656,610.684387 273.935303,599.142151 
	C265.783844,587.498413 257.942261,575.489441 251.431839,562.882935 
	C243.414032,547.357544 236.913269,531.048645 229.637054,514.382385 
	C228.152161,511.050568 226.475464,507.786285 225.267685,504.356873 
	C224.708786,502.769897 225.064240,500.860870 225.825760,499.072052 
	C229.012329,498.408630 232.226974,497.856232 235.379501,497.058350 
	C241.655167,495.470001 247.896652,493.746674 254.851990,492.403290 
	C256.874084,492.269775 258.900879,492.185516 260.917542,491.994751 
	C274.122955,490.745728 287.308014,489.218201 300.534973,488.277008 
	C315.388580,487.220062 330.272217,486.402496 345.156555,486.026001 
	C354.756805,485.783173 364.380676,486.721283 373.996033,486.778748 
	C396.069977,486.910706 417.973145,488.605133 439.631378,493.041473 
	C459.740112,497.160400 479.997223,500.650269 499.944244,505.436981 
	C520.507935,510.371643 540.797729,516.460449 561.168457,522.183044 
	C589.860046,530.243225 618.493896,538.509033 647.200134,546.515991 
	C655.643127,548.870972 664.247375,550.647583 673.495911,553.125977 
	C678.495972,553.748474 683.582520,555.268433 688.477112,554.796631 
	C697.204712,553.955383 704.526367,549.833679 708.663269,541.619080 
	C710.168884,538.629272 710.869202,535.243896 712.083801,532.095703 
	C715.826233,522.395447 713.975952,512.444336 713.257019,502.608582 
	C712.687134,494.812439 711.451477,487.054504 710.271545,479.316223 
	C709.030945,471.179565 707.505127,463.086426 706.273865,454.260956 
	C705.686523,450.554169 705.120605,446.843842 704.507690,443.141266 
	C702.928406,433.599792 701.494446,424.030121 699.687195,414.531647 
	C698.054993,405.952576 695.946472,397.465271 694.157959,388.914459 
	C692.580505,381.373138 691.344849,373.756287 689.616211,366.251556 
	C687.217896,355.839539 684.499634,345.501221 682.565857,334.839874 
	C684.089844,333.631226 685.501160,332.234161 687.156311,331.244995 
	C696.805115,325.478577 706.932617,320.404785 716.083252,313.942657 
	C725.891418,307.016144 733.257141,297.726807 731.854370,284.687897 
	C730.960632,276.381104 728.658386,268.225830 726.946777,259.342377 
	C726.853821,258.912048 726.760803,258.481689 726.830933,257.556152 
z"/>
<path fill="#E0E0E0" opacity="1.000000" stroke="none" 
	d="
M197.675781,289.235901 
	C203.769135,286.094025 209.914352,283.048187 215.944778,279.789856 
	C227.809311,273.379395 240.066223,267.551880 251.337311,260.217651 
	C271.524170,247.081848 291.498169,233.542130 310.810242,219.162766 
	C326.654968,207.365112 341.586365,194.309387 356.590973,181.425125 
	C368.427460,171.261322 380.035278,160.795334 391.251556,149.953430 
	C408.757660,133.031647 425.886047,115.717705 443.097198,98.492706 
	C453.494843,88.086708 463.753662,77.541847 474.061096,67.045876 
	C481.066742,59.912029 487.742859,52.417583 495.137604,45.714569 
	C501.067719,40.339211 507.856781,35.911465 514.639893,31.407982 
	C516.142395,33.364502 517.501282,34.862049 518.360962,36.605682 
	C526.584656,53.285233 535.152527,69.814240 542.755981,86.774536 
	C549.194336,101.136124 554.624268,115.958733 560.252319,130.672226 
	C566.011169,145.727615 571.583679,160.857117 577.021973,176.031479 
	C581.628845,188.885971 585.847351,201.879105 590.382141,214.760086 
	C597.199524,234.125305 604.559326,253.310715 610.907837,272.826538 
	C616.488892,289.983276 621.194092,307.435577 625.921936,324.856140 
	C630.210266,340.657104 634.269958,356.530701 637.956238,372.481842 
	C642.835938,393.597168 647.254089,414.819153 651.450378,436.036377 
	C649.715576,435.923737 648.380188,435.869934 647.089661,435.600861 
	C633.482544,432.764008 619.970276,429.336823 606.258118,427.173737 
	C589.608582,424.547272 572.834656,422.460968 556.037292,421.081787 
	C534.076416,419.278717 512.053955,417.896576 490.031464,417.278931 
	C472.767578,416.794739 455.459015,417.599396 438.178375,418.106354 
	C423.422546,418.539276 408.675812,419.314728 393.930054,420.040863 
	C388.807770,420.293152 383.687561,420.733490 378.588989,421.293396 
	C365.112732,422.773438 351.653351,424.406586 338.178741,425.902008 
	C324.696136,427.398315 311.170868,428.553741 297.723511,430.311707 
	C282.645294,432.282867 267.609222,434.616028 252.607407,437.108276 
	C248.023376,437.869812 243.612900,439.676086 239.030228,440.760681 
	C238.884933,440.352386 238.832367,440.187378 238.816223,439.653870 
	C237.890274,437.027802 236.661942,434.844238 236.010086,432.500366 
	C232.583954,420.181305 229.399399,407.794830 225.950729,395.482269 
	C220.389359,375.626923 214.460419,355.871826 209.117523,335.958801 
	C204.963272,320.475830 201.465393,304.816711 197.675781,289.235901 
z"/>
<path fill="#ABABAB" opacity="1.000000" stroke="none" 
	d="
M239.122940,441.003937 
	C243.612900,439.676086 248.023376,437.869812 252.607407,437.108276 
	C267.609222,434.616028 282.645294,432.282867 297.723511,430.311707 
	C311.170868,428.553741 324.696136,427.398315 338.178741,425.902008 
	C351.653351,424.406586 365.112732,422.773438 378.588989,421.293396 
	C383.687561,420.733490 388.807770,420.293152 393.930054,420.040863 
	C408.675812,419.314728 423.422546,418.539276 438.178375,418.106354 
	C455.459015,417.599396 472.767578,416.794739 490.031464,417.278931 
	C512.053955,417.896576 534.076416,419.278717 556.037292,421.081787 
	C572.834656,422.460968 589.608582,424.547272 606.258118,427.173737 
	C619.970276,429.336823 633.482544,432.764008 647.089661,435.600861 
	C648.380188,435.869934 649.715576,435.923737 651.584534,436.306030 
	C652.480164,437.029083 652.821411,437.523560 653.103760,438.422913 
	C655.241272,449.658508 657.659790,460.449951 659.584961,471.328644 
	C662.914307,490.142273 665.982056,509.002838 669.068542,527.858582 
	C670.420288,536.116638 671.548218,544.411255 672.777710,552.689270 
	C664.247375,550.647583 655.643127,548.870972 647.200134,546.515991 
	C618.493896,538.509033 589.860046,530.243225 561.168457,522.183044 
	C540.797729,516.460449 520.507935,510.371643 499.944244,505.436981 
	C479.997223,500.650269 459.740112,497.160400 439.631378,493.041473 
	C417.973145,488.605133 396.069977,486.910706 373.996033,486.778748 
	C364.380676,486.721283 354.756805,485.783173 345.156555,486.026001 
	C330.272217,486.402496 315.388580,487.220062 300.534973,488.277008 
	C287.308014,489.218201 274.122955,490.745728 260.917542,491.994751 
	C258.900879,492.185516 256.874084,492.269775 254.323669,491.903290 
	C248.904541,474.603516 244.013733,457.803711 239.122940,441.003937 
z"/>
<path fill="#7C1ACF" opacity="1.000000" stroke="none" 
	d="
M197.321686,289.192200 
	C201.465393,304.816711 204.963272,320.475830 209.117523,335.958801 
	C214.460419,355.871826 220.389359,375.626923 225.950729,395.482269 
	C229.399399,407.794830 232.583954,420.181305 236.010086,432.500366 
	C236.661942,434.844238 237.890274,437.027802 238.431824,439.667236 
	C235.271454,440.711243 232.556458,441.507599 229.788422,442.014038 
	C209.455139,445.734283 189.075974,449.214478 168.783600,453.143829 
	C156.118210,455.596375 143.559494,458.616302 130.987732,461.531830 
	C116.314148,464.934845 101.633873,468.326599 87.040283,472.051514 
	C75.027466,475.117645 63.136982,478.663086 51.192276,481.996094 
	C47.020081,473.110199 42.704208,464.288330 38.708698,455.323700 
	C32.411396,441.194550 27.481457,426.626587 24.663740,411.348083 
	C21.783417,395.730194 20.032173,380.088745 19.807552,364.150513 
	C19.584507,348.323975 31.052776,332.316040 46.790844,328.594757 
	C66.225151,323.999451 85.278908,317.819214 104.601357,312.718781 
	C120.606773,308.493927 136.796936,304.973938 152.843277,300.897705 
	C167.594360,297.150513 182.262756,293.077820 197.321686,289.192200 
z"/>
<path fill="#7E1CD0" opacity="1.000000" stroke="none" 
	d="
M653.162659,438.018005 
	C652.821411,437.523560 652.480164,437.029083 652.004761,436.264954 
	C647.254089,414.819153 642.835938,393.597168 637.956238,372.481842 
	C634.269958,356.530701 630.210266,340.657104 625.921936,324.856140 
	C621.194092,307.435577 616.488892,289.983276 610.907837,272.826538 
	C604.559326,253.310715 597.199524,234.125305 590.382141,214.760086 
	C585.847351,201.879105 581.628845,188.885971 577.021973,176.031479 
	C571.583679,160.857117 566.011169,145.727615 560.252319,130.672226 
	C554.624268,115.958733 549.194336,101.136124 542.755981,86.774536 
	C535.152527,69.814240 526.584656,53.285233 518.360962,36.605682 
	C517.501282,34.862049 516.142395,33.364502 514.998901,31.400303 
	C520.262878,25.325153 527.562805,23.378302 534.558594,21.362518 
	C542.170166,19.169317 550.347290,18.493692 557.348145,23.067099 
	C562.032837,26.127459 566.724487,30.042820 569.702515,34.675217 
	C576.513794,45.270523 582.763733,56.300453 588.322632,67.605789 
	C593.600220,78.339149 597.670166,89.663658 602.343018,100.697815 
	C605.937134,109.184784 609.894592,117.526428 613.237183,126.109238 
	C617.784851,137.786255 621.810486,149.665436 626.227051,161.395004 
	C630.846069,173.662216 635.774536,185.813339 640.354187,198.094818 
	C643.421143,206.319412 646.115723,214.682846 649.041260,223.760162 
	C654.752808,242.504700 660.582092,260.418671 665.986816,278.459839 
	C669.998657,291.851135 673.459290,305.407562 677.161987,319.285400 
	C678.745117,324.830688 680.331787,329.981018 681.918335,335.131348 
	C684.499634,345.501221 687.217896,355.839539 689.616211,366.251556 
	C691.344849,373.756287 692.580505,381.373138 694.157959,388.914459 
	C695.946472,397.465271 698.054993,405.952576 699.687195,414.531647 
	C701.494446,424.030121 702.928406,433.599792 704.507690,443.141266 
	C705.120605,446.843842 705.686523,450.554169 705.799683,454.615723 
	C700.963135,453.527496 696.607971,452.062134 692.237000,450.645721 
	C679.215576,446.426178 666.187866,442.225861 653.162659,438.018005 
z"/>
<path fill="#E0E0E0" opacity="1.000000" stroke="none" 
	d="
M229.756836,515.078369 
	C236.913269,531.048645 243.414032,547.357544 251.431839,562.882935 
	C257.942261,575.489441 265.783844,587.498413 273.935303,599.142151 
	C282.015656,610.684387 291.499695,621.234741 299.839355,632.607849 
	C305.655884,640.540100 307.287170,649.734253 302.034943,658.508362 
	C299.160645,663.310059 294.938171,667.739014 290.367828,670.993896 
	C282.657471,676.485107 274.155365,680.857117 266.045471,685.796936 
	C257.646057,690.913147 249.340363,696.183228 240.943405,701.303650 
	C238.304581,702.912842 235.503464,704.255859 232.433090,705.379639 
	C225.601013,694.481384 219.036591,683.969910 212.641418,673.356567 
	C202.553833,656.615234 191.878555,640.175781 182.765366,622.915100 
	C174.514404,607.287415 167.726059,590.856445 160.841507,574.547974 
	C154.984222,560.673035 157.987640,549.727600 169.998505,540.754395 
	C175.904663,536.341980 182.316544,532.206970 189.113297,529.470947 
	C202.433838,524.108765 216.184311,519.814575 229.756836,515.078369 
z"/>
<path fill="#690FBF" opacity="1.000000" stroke="none" 
	d="
M51.231979,482.329254 
	C63.136982,478.663086 75.027466,475.117645 87.040283,472.051514 
	C101.633873,468.326599 116.314148,464.934845 130.987732,461.531830 
	C143.559494,458.616302 156.118210,455.596375 168.783600,453.143829 
	C189.075974,449.214478 209.455139,445.734283 229.788422,442.014038 
	C232.556458,441.507599 235.271454,440.711243 238.395416,440.035767 
	C238.832367,440.187378 238.884933,440.352386 239.030228,440.760681 
	C244.013733,457.803711 248.904541,474.603516 253.973785,491.741211 
	C247.896652,493.746674 241.655167,495.470001 235.379501,497.058350 
	C232.226974,497.856232 229.012329,498.408630 225.050354,499.096313 
	C221.320984,499.971619 218.400040,500.968781 215.406616,501.645355 
	C207.500000,503.432404 199.569382,505.115906 191.634949,506.776703 
	C173.774567,510.515198 155.908661,514.227417 138.039749,517.924927 
	C130.017822,519.584900 121.983345,521.184204 113.954567,522.811035 
	C106.689766,523.873962 99.449821,525.181580 92.152344,525.922913 
	C86.266869,526.520813 81.843788,523.077026 78.519493,518.802307 
	C69.258850,506.894135 60.330986,494.727173 51.231979,482.329254 
z"/>
<path fill="#ABABAB" opacity="1.000000" stroke="none" 
	d="
M113.969254,523.215576 
	C121.983345,521.184204 130.017822,519.584900 138.039749,517.924927 
	C155.908661,514.227417 173.774567,510.515198 191.634949,506.776703 
	C199.569382,505.115906 207.500000,503.432404 215.406616,501.645355 
	C218.400040,500.968781 221.320984,499.971619 224.640060,499.109222 
	C225.064240,500.860870 224.708786,502.769897 225.267685,504.356873 
	C226.475464,507.786285 228.152161,511.050568 229.696960,514.730347 
	C216.184311,519.814575 202.433838,524.108765 189.113297,529.470947 
	C182.316544,532.206970 175.904663,536.341980 169.998505,540.754395 
	C157.987640,549.727600 154.984222,560.673035 160.841507,574.547974 
	C167.726059,590.856445 174.514404,607.287415 182.765366,622.915100 
	C191.878555,640.175781 202.553833,656.615234 212.641418,673.356567 
	C219.036591,683.969910 225.601013,694.481384 232.079620,705.391846 
	C222.405228,710.483704 212.455170,712.955750 202.917664,706.166138 
	C198.773056,703.215637 195.178177,698.997681 192.442947,694.656433 
	C184.610199,682.224426 176.789993,669.725037 169.986572,656.717773 
	C159.721405,637.092163 149.889420,617.210815 140.707886,597.057922 
	C134.696060,583.862305 129.980789,570.059692 125.017113,556.408081 
	C121.077812,545.573853 117.642845,534.556274 113.969254,523.215576 
z"/>
<path fill="#690FBF" opacity="1.000000" stroke="none" 
	d="
M653.103760,438.422913 
	C666.187866,442.225861 679.215576,446.426178 692.237000,450.645721 
	C696.607971,452.062134 700.963135,453.527496 705.714722,454.972412 
	C707.505127,463.086426 709.030945,471.179565 710.271545,479.316223 
	C711.451477,487.054504 712.687134,494.812439 713.257019,502.608582 
	C713.975952,512.444336 715.826233,522.395447 712.083801,532.095703 
	C710.869202,535.243896 710.168884,538.629272 708.663269,541.619080 
	C704.526367,549.833679 697.204712,553.955383 688.477112,554.796631 
	C683.582520,555.268433 678.495972,553.748474 673.136841,552.907593 
	C671.548218,544.411255 670.420288,536.116638 669.068542,527.858582 
	C665.982056,509.002838 662.914307,490.142273 659.584961,471.328644 
	C657.659790,460.449951 655.241272,449.658508 653.103760,438.422913 
z"/>
<path fill="#E0DFDF" opacity="1.000000" stroke="none" 
	d="
M677.165405,318.890442 
	C673.459290,305.407562 669.998657,291.851135 665.986816,278.459839 
	C660.582092,260.418671 654.752808,242.504700 649.059998,224.138550 
	C657.674866,222.962860 666.322021,221.909042 674.999878,221.483658 
	C683.803284,221.052124 692.774719,220.245605 701.418457,221.441010 
	C709.907288,222.614960 713.990173,230.442749 717.720337,237.327606 
	C720.975952,243.336319 723.211060,249.897919 725.964233,256.816315 
	C726.117798,257.754944 726.329956,257.966248 726.667847,258.051361 
	C726.760803,258.481689 726.853821,258.912048 726.712036,259.950958 
	C724.159180,271.830750 719.945862,282.234100 712.835022,291.417236 
	C703.323853,303.700287 691.032837,312.300903 677.165405,318.890442 
z"/>
<path fill="#ABABAB" opacity="1.000000" stroke="none" 
	d="
M677.161987,319.285400 
	C691.032837,312.300903 703.323853,303.700287 712.835022,291.417236 
	C719.945862,282.234100 724.159180,271.830750 726.732483,260.281067 
	C728.658386,268.225830 730.960632,276.381104 731.854370,284.687897 
	C733.257141,297.726807 725.891418,307.016144 716.083252,313.942657 
	C706.932617,320.404785 696.805115,325.478577 687.156311,331.244995 
	C685.501160,332.234161 684.089844,333.631226 682.242126,334.985596 
	C680.331787,329.981018 678.745117,324.830688 677.161987,319.285400 
z"/>
<path fill="#ABABAB" opacity="1.000000" stroke="none" 
	d="
M726.749390,257.803772 
	C726.329956,257.966248 726.117798,257.754944 726.029663,257.183044 
	C726.295593,257.151184 726.563232,257.353668 726.749390,257.803772 
z"/>
</svg>